<svg xmlns="http://www.w3.org/2000/svg" width="440" height="88" viewBox="0 0 440 88" fill="none" role="img" aria-labelledby="t d">
  <title id="t">LoopCompass</title>
  <desc id="d">LoopCompass logo: geometric compass mark and wordmark.</desc>
  <style>
    .ring { stroke: #1f2328; fill: none; }
    .tick { stroke: #1f2328; fill: none; }
    .needle { fill: #0969da; }
    .hub { fill: #1f2328; }
    .word { fill: #1f2328; }
    .tag { fill: #656d76; }
    @media (prefers-color-scheme: dark) {
      .ring { stroke: #e6edf3; }
      .tick { stroke: #e6edf3; }
      .needle { fill: #58a6ff; }
      .hub { fill: #e6edf3; }
      .word { fill: #e6edf3; }
      .tag { fill: #8b949e; }
    }
  </style>

  <g transform="translate(4 8)">
    <circle class="ring" cx="36" cy="36" r="34" stroke-width="1.5"/>
    <circle class="ring" cx="36" cy="36" r="26" stroke-width="1" opacity="0.4"/>
    <path class="tick" d="M36 4v7M36 61v7M4 36h7M61 36h7" stroke-width="1.5" stroke-linecap="round"/>
    <path class="tick" d="M13.2 13.2l5 5M53.8 53.8l5 5M58.8 13.2l-5 5M18.2 53.8l-5 5" stroke-width="1" stroke-linecap="round" opacity="0.5"/>
    <path class="needle" d="M36 12l5.5 24L36 60l-5.5-24z"/>
    <circle class="hub" cx="36" cy="36" r="3.25"/>
    <path class="ring" d="M10 26c7-16 45-16 52 0" stroke-width="1" opacity="0.3" stroke-linecap="round"/>
    <path class="ring" d="M10 46c7 16 45 16 52 0" stroke-width="1" opacity="0.3" stroke-linecap="round"/>
  </g>

  <text class="word" x="96" y="46" font-family="ui-sans-serif, system-ui, -apple-system, 'Segoe UI', Helvetica, Arial, sans-serif" font-size="32" font-weight="600" letter-spacing="-0.025em">LoopCompass</text>
  <text class="tag" x="98" y="68" font-family="ui-sans-serif, system-ui, -apple-system, 'Segoe UI', Helvetica, Arial, sans-serif" font-size="11" font-weight="500" letter-spacing="0.08em">REMEMBER THE PATH  ·  REPAIR THE REST</text>
</svg>
